<?xml version="1.0" standalone="no"?><!DOCTYPE svg PUBLIC "-//W3C//DTD SVG 1.1//EN" "http://www.w3.org/Graphics/SVG/1.1/DTD/svg11.dtd"><svg t="1756085021373" class="icon" viewBox="0 0 3372 1024" version="1.1" xmlns="http://www.w3.org/2000/svg" p-id="8805" xmlns:xlink="http://www.w3.org/1999/xlink" width="658.59375" height="200"><path d="M2437.565217 422.956522h-278.260869l-22.26087-55.652174h300.521739v55.652174zM1936.695652 912.695652h-200.347826l44.521739-89.043478V144.695652l155.826087-44.521739v812.521739zM1981.217391 100.173913h155.826087v812.521739h-155.826087z" p-id="8806" fill="#ffffff"></path><path d="M1741.913043 289.391304h211.478261v55.652174h-211.478261zM1953.391304 623.304348l-211.478261 66.782609v-55.652174l211.478261-66.782609v55.652174zM2103.652174 100.173913h244.869565v55.652174h-244.869565z" p-id="8807" fill="#ffffff"></path><path d="M2437.565217 300.521739h-200.347826l44.521739-89.043478V100.173913h155.826087v200.347826zM2237.217391 912.695652h-111.304348l200.347827-489.73913h111.304347l-200.347826 489.73913z" p-id="8808" fill="#ffffff"></path><path d="M2304 912.695652h133.565217l-133.565217-434.086956h-133.565217l133.565217 434.086956zM2583.707826 512h612.173913v55.652174h-612.173913zM2973.273043 445.217391h-155.826086V144.695652l155.826086-44.521739v345.043478z" p-id="8809" fill="#ffffff"></path><path d="M2583.707826 512h155.826087v400.695652h-155.826087zM3040.055652 512h155.826087v400.695652h-155.826087z" p-id="8810" fill="#ffffff"></path><path d="M2583.707826 812.521739h612.173913v55.652174h-612.173913zM2550.316522 389.565217h678.956521v55.652174h-678.956521zM2661.62087 200.347826h523.130434v55.652174h-523.130434z" p-id="8811" fill="#ffffff"></path><path d="M2728.403478 356.173913h-155.826087l55.652174-222.608696h155.826087l-55.652174 222.608696zM1092.229565 912.695652h-155.826087l44.521739-667.826087h155.826087l-44.521739 667.826087z" p-id="8812" fill="#ffffff"></path><path d="M1103.36 300.521739h-155.826087v-55.652174h166.956522l-11.130435 55.652174zM980.925217 857.043478h144.695653v55.652174h-144.695653zM953.09913 133.565217h144.695653v66.782609h-144.695653zM1147.881739 200.347826h478.608696v55.652174h-478.608696z" p-id="8813" fill="#ffffff"></path><path d="M1626.490435 912.695652h-155.826087l-111.304348-812.521739h155.826087l111.304348 812.521739zM1159.012174 345.043478h222.608696v55.652174h-222.608696z" p-id="8814" fill="#ffffff"></path><path d="M1192.403478 389.565217h155.826087v467.478261h-155.826087z" p-id="8815" fill="#ffffff"></path><path d="M1426.142609 868.173913l-267.130435 44.521739v-55.652174l267.130435-44.521739v55.652174zM1543.012174 122.434783h66.782609v44.521739h-66.782609zM299.186087 133.565217h222.608696v55.652174h-222.608696zM823.652174 912.695652H645.565217l44.52174-89.043478V144.695652l133.565217-44.521739v812.521739z" p-id="8816" fill="#ffffff"></path><path d="M666.490435 756.869565h-100.173913V200.347826l100.173913-44.521739v601.043478zM254.664348 133.565217h89.043478v445.217392h-89.043478zM455.012174 133.565217h89.043478v445.217392h-89.043478z" p-id="8817" fill="#ffffff"></path><path d="M477.273043 289.391304l-111.304347 623.304348h-133.565218l111.304348-623.304348h133.565217z" p-id="8818" fill="#ffffff"></path><path d="M566.316522 912.695652h-133.565218l-55.652174-244.869565h133.565218l55.652174 244.869565zM210.142609 122.434783l11.130434 155.826087h-100.173913l-11.130434-155.826087M210.142609 322.782609l11.130434 155.826087h-100.173913l-11.130434-155.826087M226.838261 523.130435l-33.391304 389.565217h-100.173914l33.391305-389.565217h100.173913z" p-id="8819" fill="#ffffff"></path></svg>